<?xml version="1.0" encoding="utf-8"?>
<!-- Generator: Adobe Illustrator 19.2.1, SVG Export Plug-In . SVG Version: 6.00 Build 0)  -->
<svg version="1.1" id="layer" xmlns="http://www.w3.org/2000/svg" xmlns:xlink="http://www.w3.org/1999/xlink" x="0px" y="0px"
	 viewBox="0 0 652 652" style="enable-background:new 0 0 652 652;" xml:space="preserve">
<g>
	<g>
		<g>
			<g>
				<path d="M159.8,370.1h6.3l9.1,29.1h-6.3l-2-6.9h-8.5l-2,6.9h-6.1L159.8,370.1z M159.8,387.5h5.7c0,0-1-3-1.6-5.8
					c-0.3-1.3-1.2-5.1-1.2-5.1s-0.8,3.4-1.4,5.6C160.8,384.2,160.4,385.5,159.8,387.5z"/>
				<path d="M177.6,378.7l5-1.4c0.5,0.9,0.8,1.8,0.8,2.7c1.3-0.9,1.5-1.1,2.5-1.6c1.1-0.6,2.6-0.9,3.8-0.9c2.4,0,4.5,1.2,5.1,3.1
					c0.3,0.8,0.4,1.7,0.4,3v15.6h-5.5v-13.9c0-2.4-0.4-3.1-1.9-3.1c-1.1,0-2.6,0.8-3.9,1.9v15.1h-5.6v-15.5
					C178.4,381.9,178.1,380.1,177.6,378.7z"/>
				<path d="M204.1,368.5c1.9,0,3.4,1.5,3.4,3.5c0,1.9-1.5,3.5-3.5,3.5c-1.9,0-3.4-1.5-3.4-3.5C200.6,370,202.2,368.5,204.1,368.5z
					 M201.3,378.2l5.6-0.9v21.9h-5.6V378.2z"/>
				<path d="M212.4,378.8l5-1.4c0.4,0.6,0.5,1.1,0.7,2.2c1.5-1.4,3.3-2.2,5.2-2.2c1.7,0,3.2,0.6,4.3,1.8c0.3,0.3,0.4,0.5,0.8,1
					c2-2,3.7-2.8,6-2.8c1.7,0,3.3,0.5,4.2,1.3c1.2,1,1.6,2.3,1.6,5.2v15.2h-5.4v-14.1c0-2.5-0.3-3-1.7-3c-1,0-2.5,0.7-3.7,1.8v15.3
					h-5.3v-13.9c0-2.7-0.4-3.3-1.9-3.3c-1,0-2.5,0.5-3.7,1.6v15.6h-5.5v-14.9C213.1,381.2,212.9,379.9,212.4,378.8z"/>
				<path d="M245.8,380.4c1.4-0.9,2-1.2,3.5-1.7c2.1-0.9,3.9-1.3,5.8-1.3c3.6,0,6,1.3,6.9,3.7c0.3,0.9,0.4,1.5,0.4,3.8l-0.1,7.2
					c0,0.1,0,0.2,0,0.4c0,2.3,0.4,3.2,2,4.4l-3,3.4c-1.3-0.5-2.5-1.5-3-2.6c-0.8,0.7-0.9,0.8-1.3,1.1c-1,0.8-2.5,1.2-4.3,1.2
					c-4.8,0-7.3-2.4-7.3-6.7c0-5,3.5-7.3,10.3-7.3c0.4,0,0.7,0,1.3,0v-0.9c0-2.4-0.5-3.2-2.5-3.2c-1.8,0-3.9,0.9-6.2,2.4
					L245.8,380.4z M256.8,389.8h-0.2c-3.9,0-5.2,0.7-5.2,3.3c0,1.7,1,2.8,2.5,2.8c1,0,2.1-0.5,2.9-1.5L256.8,389.8z"/>
				<path d="M273.5,368.3c0.2,1.2,0.3,2.5,0.3,5.5v16.6c0,3.7,0,4.2,0.4,4.8c0.2,0.4,0.7,0.6,1.1,0.6c0.2,0,0.3,0,0.6-0.1l1,3.3
					c-1,0.4-2.1,0.6-3.3,0.6c-2.4,0-4.3-1.1-5-2.9c-0.4-1.1-0.5-1.7-0.5-4.8V376c0-2.8-0.1-4.5-0.3-6.4L273.5,368.3z"/>
				<path d="M295.1,379.3l-1.8,3.8c-2.1-1.1-3.7-1.5-5.2-1.5c-1.6,0-2.7,0.8-2.7,2.1c0,1.1,0.7,1.7,2.7,2.2l2.6,0.7
					c2.6,0.7,3.5,1.4,4.2,2.4c0.8,1,1.2,2.2,1.2,3.6c0,4.4-3.7,7.4-9.1,7.4c-2.6,0-5.5-0.8-8.6-2.5l2-4.1c1.7,1,4.7,2.4,7.1,2.4
					c1.6,0,2.8-1,2.8-2.4c0-1.5-1-2.2-3.3-2.6l-2.5-0.5c-1.4-0.3-3.2-1.3-3.9-2.2c-0.7-0.9-1.2-2.5-1.2-3.8c0-4.2,3.3-7,8.3-7
					C290.9,377.2,293.1,378.3,295.1,379.3z"/>
				<path d="M322.1,370.1h6.3l9.1,29.1h-6.2l-2.1-6.9h-8.5l-2,6.9h-6.1L322.1,370.1z M322.1,387.5h5.7c0,0-1-3-1.6-5.8
					c-0.3-1.3-1.2-5.1-1.2-5.1s-0.8,3.4-1.4,5.6C323.1,384.2,322.7,385.5,322.1,387.5z"/>
				<path d="M345.9,368.3c0.2,1.2,0.3,2.5,0.3,5.5v16.6c0,3.7,0,4.2,0.4,4.8c0.2,0.4,0.7,0.6,1.1,0.6c0.2,0,0.3,0,0.6-0.1l1,3.3
					c-1,0.4-2.1,0.6-3.3,0.6c-2.4,0-4.3-1.1-5-2.9c-0.4-1.1-0.5-1.7-0.5-4.8V376c0-2.8-0.1-4.5-0.3-6.4L345.9,368.3z"/>
				<path d="M350.5,378.3l5.5-0.6l1.8,8.1c0.5,2.5,1.2,6.6,1.2,6.6s0.5-3.8,1.5-7.4l2-7.1h5.2l1.7,7c1,4,1.6,7.5,1.6,7.5
					c0.1-0.9,0.6-4.2,1.2-7l1.6-7.6h5.7l-6.1,21.3h-5.1l-1.9-7.3c-0.4-1.7-0.9-3.7-1.2-5.2c-0.2-1-0.2-1.3-0.3-2.1
					c-0.1,0.9-0.2,1.2-0.5,2.8c-0.8,3.5-1.8,7.3-1.8,7.5l-1.1,4.4h-5.2L350.5,378.3z"/>
				<path d="M382.7,380.4c1.4-0.9,2-1.2,3.4-1.7c2.1-0.9,3.9-1.3,5.8-1.3c3.6,0,6,1.3,6.9,3.7c0.3,0.9,0.4,1.5,0.4,3.8l-0.1,7.2
					c0,0.1,0,0.2,0,0.4c0,2.3,0.4,3.2,2,4.4l-3,3.4c-1.3-0.5-2.5-1.5-3-2.6c-0.8,0.7-0.9,0.8-1.3,1.1c-1,0.8-2.5,1.2-4.3,1.2
					c-4.7,0-7.3-2.4-7.3-6.7c0-5,3.4-7.3,10.2-7.3c0.4,0,0.7,0,1.2,0v-0.9c0-2.4-0.5-3.2-2.5-3.2c-1.8,0-3.9,0.9-6.2,2.4
					L382.7,380.4z M393.7,389.8h-0.3c-3.9,0-5.2,0.7-5.2,3.3c0,1.7,1,2.8,2.5,2.8c1,0,2.1-0.5,2.9-1.5L393.7,389.8z"/>
				<path d="M402.8,378.2l5.7-0.7l3.7,12.4c0.4,1.3,1.1,4.4,1.1,4.4s0.4-2.4,0.7-3.4c0.3-1.3,0.4-1.5,0.8-3l3.2-10.1h5.9l-7.7,21.6
					c-1.5,4.1-2.5,5.9-4.1,7.1c-1.4,1-3.2,1.7-5.2,2l-1.9-3.7c1.2-0.3,2.6-0.8,3.5-1.4c0.6-0.5,1.1-1,1.6-1.8
					c0.5-0.9,0.7-1.3,1.2-2.5h-1.4c-0.3-1-0.5-1.4-0.9-2.5c-0.4-1.3-1.1-3.4-1.1-3.5L402.8,378.2z"/>
				<path d="M442,379.3l-1.8,3.8c-2.1-1.1-3.7-1.5-5.3-1.5c-1.6,0-2.7,0.8-2.7,2.1c0,1.1,0.7,1.7,2.7,2.2l2.6,0.7
					c2.6,0.7,3.5,1.4,4.2,2.4c0.8,1,1.2,2.2,1.2,3.6c0,4.4-3.7,7.4-9.1,7.4c-2.6,0-5.5-0.8-8.6-2.5l2-4.1c1.7,1,4.7,2.4,7.1,2.4
					c1.6,0,2.8-1,2.8-2.4c0-1.5-1-2.2-3.3-2.6l-2.5-0.5c-1.4-0.3-3.2-1.3-3.9-2.2c-0.8-0.9-1.2-2.5-1.2-3.8c0-4.2,3.3-7,8.3-7
					C437.8,377.2,440,378.3,442,379.3z"/>
			</g>
		</g>
		<g>
			<g>
				<g>
					<path d="M149.3,301.9c0,3.6,1.2,6.8,3.6,9.3c2.3,2.4,5,3.5,9.9,5l5.4,1.6c6,1.8,8.9,4.8,8.9,9c0,2.9-1.1,5.1-3.4,6.9
						c-2.1,1.6-4.1,2.1-7.9,2.1c-5.3,0-9.5-1.4-13.7-4.4l-0.8-0.6l-3.8,6.7l0.8,0.5c5.5,3.4,11.1,5,17.6,5c5,0,8.8-1,12.5-3.4
						c5-3.4,7.8-8.3,7.8-13.6c0-3.6-1.4-7.3-3.7-10c-2.1-2.5-4.8-4.1-9.8-5.6l-6.1-1.9c-6.8-2.1-8.2-4.6-8.2-7.8
						c0-4.9,3.6-7.8,9.7-7.8c4.3,0,7.5,1.1,12.5,4.4l0.8,0.5l3.8-6.2l-0.7-0.5c-5.3-3.6-10.7-5.3-16.6-5.3
						C156.6,285.6,149.3,292.1,149.3,301.9z"/>
				</g>
				<g>
					<g>
						<path d="M232.6,296c3.2,0,5.7-2.5,5.7-5.7c0-3.2-2.5-5.7-5.7-5.7c-3.1,0-5.7,2.6-5.7,5.8C226.9,293.5,229.4,296,232.6,296z
							 M228.4,301.7v40.2h8.3v-41.6l-1.1,0.2L228.4,301.7z"/>
					</g>
				</g>
				<path d="M221.8,337.3c-2-1-2.7-2.2-2.7-6.8l0.1-1.7c0-0.1,0.3-12.8,0.3-12.8v-2c0-3.5-0.1-5-0.9-6.9c-1.8-4.3-5.8-6.6-11.6-6.6
					c-5.8,0-11.4,1.8-16.7,5.4l-0.8,0.5l4.1,5.8l0.8-0.5l4.7-2.7c2.6-1.1,4.8-1.6,7.1-1.6c2,0,3.4,0.5,4.5,1.8c0.8,0.9,1,2,1,5.4
					c0,0,0,0.9,0,1.8c-0.8,0-1.8,0-1.8,0c-13.4,0-21.4,5.5-21.4,14.8c0,2.5,0.9,6.3,3.4,8.6c1.9,1.7,4.4,3.4,9.9,3.4
					c4.2,0,7.4-1.5,10.9-4.8c1,2.4,2.8,4.4,5.3,5.2l0.7,0.2l4.1-5.8L221.8,337.3z M211.3,331.4c-1.5,3-4.9,5.1-8.5,5.1
					c-3.9,0-5.7-2-5.7-6.1c0-2.4,0.6-4.1,1.9-5.5c1.9-1.9,5.1-2.8,10.4-2.8c0,0,2,0.1,2.1,0.1C211.5,323.7,211.3,331.4,211.3,331.4z
					"/>
				<g>
					<path d="M250.2,300.5l-7,1.9l0.4,1c1.2,2.8,1.4,3.4,1.4,8.8v29.7h7.8c0,0,0-28.5,0-29.3c2.7-2.7,7.1-4.9,9.8-4.9
						c1.5,0,2.9,0.5,3.6,1.3c0.9,1,1.2,1.8,1.2,5.8v27.1h8v-30.3c0-1.7-0.4-3.4-1-4.9c-1.7-3.8-5.8-6.2-10.3-6.2
						c-3.9,0-7.7,1.9-11.4,5.2c-0.2-1.6-0.5-3-1.3-4.7l-0.3-0.7L250.2,300.5z"/>
				</g>
				<g>
					<path d="M292.8,290.4l-7,1.5l-0.1,1.7c0,0-0.4,6.4-0.5,7.7c-1.2,0-5.1,0-5.1,0v6.6c0,0,3.8,0,5,0c0,1.7,0,25.5,0,25.5
						c0,4.5,1.3,7.1,4.3,8.5c1.7,0.8,3.4,1.2,5.4,1.2c2.7,0,5.1-0.5,7.3-1.7l0.6-0.3l-1.3-5.8l-1.1,0.5c-1,0.5-2,0.7-3.5,0.7
						c-3,0-4-0.7-4-4.8c0,0,0-22.2,0-23.9c1.5,0,7.8,0,7.8,0l2.6-6.6c0,0-8.5,0-10.2,0c0.1-1.6,0.8-11.1,0.8-11.1L292.8,290.4z"/>
				</g>
				<g>
					<path d="M339.3,286.8H332v55.1h28.3l1.1-7.2c0,0-19.5,0-21.2,0c0-1.8,0-47.9,0-47.9L339.3,286.8L339.3,286.8z"/>
				</g>
				<path d="M393.7,307.7c-3.3-4.7-8.1-7.2-14.1-7.2c-10.7,0-17.4,8.1-17.4,21.2c0,13.3,6.8,21.5,17.6,21.5c4.7,0,8-1.2,11.2-4
					c4.5-3.9,6.4-8.9,6.4-16.7C397.4,316.1,396.2,311.4,393.7,307.7z M387.5,331.1c-1.2,3.4-3.8,5.2-7.5,5.2c-3,0-5.8-1.4-7-3.4
					c-1.4-2.3-2.3-6.9-2.3-12.2c0-4.3,0.6-7.3,1.8-9.7c1.2-2.2,4.1-3.7,7.1-3.7c2.6,0,5.8,1.2,7.4,4.4c1.2,2.4,1.7,5.9,1.7,11.2
					C388.7,326.7,388.4,328.8,387.5,331.1z"/>
				<g>
					<path d="M409.7,300.5l-6.7,1.3V331c0,2.5,0.4,4.6,1.1,6.2c1.6,3.8,5.7,6,11,6c5,0,8.8-1.9,11.9-5.3c0.7,2,1.7,3.6,4,5.4
						l0.7,0.6l5-5.3l-0.6-0.7l-1.5-1.9c-0.7-1.3-0.9-2.6-0.9-6.8v-28.5l-7.8,1.3v28.2c-1.8,3.5-5.5,6.1-8.9,6.1
						c-1.4,0-3.1-0.5-4.3-1.3c-1.4-0.9-1.8-1.8-1.8-5.6v-28.9L409.7,300.5z"/>
				</g>
				<g>
					<path d="M441,290.4c0,3.1,2.6,5.6,5.7,5.6c3.2,0,5.7-2.5,5.7-5.7c0-3.2-2.5-5.7-5.7-5.7C443.5,284.7,441,287.3,441,290.4z"/>
					<path d="M449.7,300.5l-7.2,1.1v40.2h8.3v-41.6L449.7,300.5z"/>
				</g>
				<g>
					<path d="M457,312.6c0,2.8,0.9,5.3,2.7,7.4c2,2.2,4.1,3.4,7.8,4.2c0,0,4.8,1,4.8,1c4,0.8,5.6,2.4,5.6,5.4c0,3.5-2.6,5.8-6.9,5.8
						c-4,0-7.9-1.2-11.8-3.5l-0.8-0.5l-3.2,6.2l0.7,0.5c4.1,2.5,9.6,4,14.7,4c9.1,0,15.5-5.6,15.5-13.6c0-6.2-3.6-10.1-11.1-11.7
						c0,0-5.1-1.1-5.1-1.1c-2.1-0.4-3.3-1-4-1.8c-0.6-0.7-0.9-1.7-0.9-2.8c0-3.3,2.5-5.4,6.4-5.4c3.1,0,5.6,1,9.3,2.7l0.8,0.4
						l3.1-6.1l-0.8-0.4c-3.5-2-8.2-3.2-12.3-3.2C463,299.8,457,305.1,457,312.6z"/>
				</g>
				<g>
					<path d="M545.6,287.3h-31l-2.4,7.2h21.2c0,0,2.1,0,3.7-0.1c-1,1.5-2.4,3.6-2.4,3.6c-0.1,0.1-22.9,37.7-22.9,37.7v6.1H545
						l2.2-7.3h-22.4c0,0-1.5,0-2.8,0.1c0.6-1,2.3-3.7,2.3-3.7l22.3-37v-6.6L545.6,287.3L545.6,287.3z"/>
				</g>
				<path d="M580.6,307.7c-3.3-4.7-8.1-7.2-14-7.2c-10.7,0-17.4,8.1-17.4,21.2c0,13.3,6.8,21.5,17.6,21.5c4.6,0,8-1.2,11.2-4
					c4.5-3.9,6.4-8.9,6.4-16.7C584.3,316.1,583.1,311.4,580.6,307.7z M574.4,331.1c-1.2,3.4-3.9,5.2-7.5,5.2c-3,0-5.8-1.4-7-3.4
					c-1.4-2.3-2.3-6.9-2.3-12.2c0-4.3,0.6-7.3,1.8-9.7c1.2-2.2,4.1-3.7,7.1-3.7c2.5,0,5.8,1.2,7.4,4.4c1.2,2.4,1.7,5.9,1.7,11.2
					C575.5,326.7,575.3,328.8,574.4,331.1z"/>
				<g>
					<g>
						<path d="M621.3,307.7c-3.3-4.7-8.1-7.2-14.1-7.2c-10.7,0-17.4,8.1-17.4,21.2c0,13.3,6.8,21.5,17.6,21.5c4.7,0,8-1.2,11.2-4
							c4.5-3.9,6.4-8.9,6.4-16.7C625,316.1,623.8,311.4,621.3,307.7z M615.1,331.1c-1.2,3.4-3.9,5.2-7.5,5.2c-3,0-5.8-1.4-7-3.4
							c-1.4-2.3-2.3-6.9-2.3-12.2c0-4.3,0.6-7.3,1.8-9.7c1.2-2.2,4.1-3.7,7.1-3.7c2.5,0,5.8,1.2,7.4,4.4c1.2,2.4,1.7,5.9,1.7,11.2
							C616.2,326.7,615.9,328.8,615.1,331.1z"/>
					</g>
				</g>
			</g>
		</g>
		<g>
			<path d="M91.4,346.2c-5.6-1-7.8,5.6-2.9,6.2C92.9,352.9,95.9,346.9,91.4,346.2z"/>
			<path d="M125.7,308.7c0,4.3-2.1,4.8-2.8,7.2c-0.7,2.4-0.2,4.6-0.8,7.2c-1.4,6-10.3,16.9-21.6,11.9
				C89.6,330.1,91.9,305.5,125.7,308.7z"/>
			<path d="M112,269.3c-1.4-1.7-5,1.3-10.2,1.8c-3,0.3-10.9,12.5-6.1,27.5c2.8-0.9,5.4-1.7,8.6-3.5c-1.5-4.5-3.3-8.4-1.7-14.2
				C104.4,274.5,113.4,271,112,269.3z"/>
			<path d="M114.7,243.5c-0.9,0,0,1.6,0.3,3.6c1.2,8.6-5.3,14.4-10.8,19.3c1.8,0.7,5.2-2.5,9.6-1.5c2.7,0.6,5.9-9.4,4.3-15.2
				C117.4,247.3,115.8,243.4,114.7,243.5z"/>
			<path d="M81.1,366.1c-2.8-0.8-4.7,1.5-4.7,3.9c0,2.1,0.8,3.7,1.8,3.7c0.9,0,1.4-1.7,1.4-3.5c0-0.7,0.7-1,1.2-0.9
				c1.8,0.3,3.6,0.1,3.7-0.7C84.6,367.6,83.1,366.6,81.1,366.1z"/>
			<path d="M59.3,346.2c5.5-1,7.8,5.6,2.9,6.2C57.8,352.9,54.8,346.9,59.3,346.2z"/>
			<path d="M25,308.7c0,4.3,2.1,4.8,2.8,7.2c0.7,2.4,0.2,4.6,0.8,7.2c1.4,6,10.3,16.9,21.6,11.9C61.1,330.1,58.8,305.5,25,308.7z"/>
			<path d="M105,299.2c-3.1,1.5-5.3,2.6-9.3,3.9c-12.5,4.3-18.6,12.6-18.7,24.2c-1,0-2.1,0-3.1,0c-0.1-11.7-6.3-19.9-18.8-24.2
				c-4-1.4-6.3-2.4-9.3-3.9c-1.3,2.8-0.6,7,3.1,8.4c10.3,3.7,15.2,11,16.8,20.5c-1.7,0.3-3.1,0.7-4,1.1c-2.6,1.3-4.2,2.5-5.3,5.3
				c-3.5,8.9,9.3,6.8,12.4,10.8c1.8,2.3,0.8,10.5,0.8,13.8c0.1-1.1-0.9,4,1.4,4.4c0.7,0.1,2.5-0.4,4.3-0.4h0.4
				c1.9,0,3.6,0.6,4.3,0.4c2.3-0.4,1.3-5.5,1.4-4.4c0-3.3-0.9-11.5,0.8-13.8c3.1-4,15.8-1.9,12.4-10.8c-1.1-2.8-2.8-3.9-5.3-5.3
				c-0.9-0.5-2.4-0.9-4.2-1.2c1.9-9.6,6.6-16.7,16.8-20.4C105.6,306.2,106.3,301.9,105,299.2z"/>
			<g>
				<path d="M75.4,379.4c-3.3,0-6.5-2.8-2.8-3.2c0.7-0.1,2,0.1,2.8,0.1c0.8,0,2.1-0.2,2.8-0.1C81.9,376.6,78.8,379.4,75.4,379.4z"/>
			</g>
			<path d="M38.7,269.3c1.4-1.7,5,1.3,10.2,1.8c3,0.3,10.9,12.5,6.1,27.5c-2.8-0.9-5.4-1.7-8.6-3.5c1.5-4.5,3.3-8.4,1.7-14.2
				C46.3,274.5,37.3,271,38.7,269.3z"/>
			<path d="M36,243.5c0.9,0,0,1.6-0.3,3.6c-1.2,8.6,5.3,14.4,10.8,19.3c-1.8,0.7-5.2-2.5-9.6-1.5c-2.7,0.6-5.9-9.4-4.3-15.2
				C33.2,247.3,34.9,243.4,36,243.5z"/>
			<path d="M69.7,366.1c2.8-0.8,4.7,1.5,4.7,3.9c0,2.1-0.8,3.7-1.8,3.7c-0.9,0-1.4-1.7-1.4-3.5c0-0.7-0.7-1-1.2-0.9
				c-1.8,0.3-3.6,0.1-3.7-0.7C66.1,367.6,67.7,366.6,69.7,366.1z"/>
		</g>
	</g>
	<g>
		<path d="M453.5,382.5c-4.3,0-7.7-3.5-7.7-7.8c0-4.3,3.5-7.8,7.7-7.8s7.8,3.5,7.8,7.8C461.3,379,457.8,382.5,453.5,382.5z
			 M453.5,368.9c-3.1,0-5.6,2.6-5.6,5.9c0,3.2,2.5,5.9,5.6,5.9c3.1,0,5.6-2.6,5.6-5.9C459.2,371.5,456.6,368.9,453.5,368.9z
			 M454.6,378.6c-0.4-0.6-0.5-0.8-0.8-1.4c-0.8-1.3-1-1.6-1.1-1.8v3.2h-2v-8h3.2c1.6,0,2.6,1,2.6,2.4c0,1.2-0.8,2.1-1.8,2.2
			c0.5,0.2,0.8,0.7,1.1,1.1c0.6,0.9,1.4,2.3,1.4,2.3H454.6z M453.3,372.2h-0.6v1.6h0.5c0.8,0,1-0.3,1-0.8
			C454.3,372.5,453.9,372.2,453.3,372.2z"/>
	</g>
</g>
</svg>
